<svg width="16" height="16" viewBox="0 0 16 16" fill="none" xmlns="http://www.w3.org/2000/svg">
  <path d="M2 4H3.33333H14" stroke="#E66767" stroke-width="2" stroke-linecap="round" stroke-linejoin="round"/>
  <path d="M5.33334 4V2.66667C5.33334 2.31305 5.47381 1.97391 5.72386 1.72386C5.97391 1.47381 6.31305 1.33334 6.66667 1.33334H9.33334C9.68696 1.33334 10.0261 1.47381 10.2761 1.72386C10.5262 1.97391 10.6667 2.31305 10.6667 2.66667V4M12.6667 4V13.3333C12.6667 13.687 12.5262 14.0261 12.2761 14.2761C12.0261 14.5262 11.687 14.6667 11.3333 14.6667H4.66667C4.31305 14.6667 3.97391 14.5262 3.72386 14.2761C3.47381 14.0261 3.33334 13.687 3.33334 13.3333V4H12.6667Z" stroke="#E66767" stroke-width="2" stroke-linecap="round" stroke-linejoin="round"/>
</svg>
